<svg xmlns="http://www.w3.org/2000/svg" fill="none" viewBox="0 0 132 23"><path stroke="#FADDA5" stroke-linecap="round" stroke-width="5" d="M3.24 3.353c25.003-.926 50.175.11 75.294-.117 10.429-.094 20.804.05 31.254.203 1.859.028 1.661.881 1.403 1.805-.795 2.857-8.579 3.5-12.189 3.888-7.992.86-16.43.532-24.592.74-11.553.293-23.19.388-34.671.983-4.972.257-9.947.531-14.887.893-2.483.182-5.89.191-7.963 1.114-.325.144-1.892.965-1 1.131 3.52.656 7.468 1.063 11.044 1.347 8.512.678 17.06.629 25.572.962 12.805.503 25.652.918 38.457 1.768 8.496.564 17.027 1.53 25.528 1.812 4.281.141 8.54.053 12.82.194"/></svg>