<svg xmlns="http://www.w3.org/2000/svg" viewBox="0 0 18 19"><path fill="currentColor" fill-rule="evenodd" d="M6.434 3.306A3.4 3.4 0 0 1 9 2.136c1.025 0 1.943.454 2.566 1.17a3.4 3.4 0 0 1 2.641.987 3.4 3.4 0 0 1 .987 2.641 3.4 3.4 0 0 1 1.17 2.566 3.4 3.4 0 0 1-1.17 2.566 3.4 3.4 0 0 1-.987 2.64 3.4 3.4 0 0 1-2.641.988A3.4 3.4 0 0 1 9 16.864a3.4 3.4 0 0 1-2.566-1.17 3.4 3.4 0 0 1-2.641-.987 3.4 3.4 0 0 1-.987-2.642A3.4 3.4 0 0 1 1.636 9.5c0-1.025.454-1.943 1.17-2.566a3.4 3.4 0 0 1 .987-2.641 3.4 3.4 0 0 1 2.641-.987m5.293 4.824a.567.567 0 0 0-.922-.659L8.36 10.892 7.135 9.666a.566.566 0 0 0-.801.8l1.699 1.7a.566.566 0 0 0 .862-.071z" clip-rule="evenodd"/></svg>