<svg width="30" height="30" viewBox="0 0 30 30" fill="none" xmlns="http://www.w3.org/2000/svg">
  <path d="M26 9.55V21.45C26 22.8583 24.8635 24 23.4615 24H6.53846C5.13651 24 4 22.8583 4 21.45V9.55M26 9.55C26 8.14167 24.8635 7 23.4615 7H6.53846C5.13651 7 4 8.14167 4 9.55M26 9.55V9.82507C26 10.7106 25.5427 11.5327 24.7919 11.9968L16.3304 17.2276C15.5145 17.7319 14.4855 17.7319 13.6696 17.2276L5.20806 11.9968C4.45732 11.5327 4 10.7106 4 9.82507V9.55" stroke="#151515" stroke-width="2.5" stroke-linecap="round" stroke-linejoin="round" />
</svg>