<svg  viewBox="0 0 435 510" fill="none" xmlns="http://www.w3.org/2000/svg">
  <path d="M458 4.8896C418.5 16.8895 338.957 28.4019 294.373 37.1799C238.643 48.1523 106.658 77.7524 106.658 77.7524C106.658 77.7524 61.105 78.1199 51.8908 99.9221C46.7061 112.19 38.7195 129.197 53.7991 143.452C75.6053 164.064 183.552 146.741 207.227 144.593C230.901 142.446 332 116 404.38 137.869C444.262 149.919 450.124 185.964 442.519 194.194C372 270.5 173.985 221.244 120.259 230.745C72.8941 239.12 77.3215 282.387 96.4383 288.049C115.555 293.71 214 258 317.436 241.89C396.345 229.599 442.519 232.576 442.519 278C442.519 323.686 296.845 295 244 295C195.564 295 180.382 356.326 203.5 370.5C226.618 384.674 264 383.513 323.5 378C382.576 372.526 437.936 377.39 420.436 421.39C413.258 439.438 355.436 467.89 292.936 478.89C242.75 487.722 182.436 484.39 160.436 488.89" stroke="#FADDA5" stroke-width="90" stroke-linecap="round" />
</svg>