<svg xmlns="http://www.w3.org/2000/svg" fill="none" viewBox="0 0 435 510"><path stroke="#FADDA5" stroke-linecap="round" stroke-width="90" d="M458 4.89c-39.5 12-119.043 23.512-163.627 32.29-55.73 10.972-187.715 40.572-187.715 40.572s-45.553.368-54.767 22.17c-5.185 12.268-13.172 29.275 1.908 43.53 21.806 20.612 129.753 3.289 153.428 1.141C230.901 142.446 332 116 404.38 137.869c39.882 12.05 45.744 48.095 38.139 56.325-70.519 76.306-268.534 27.05-322.26 36.551-47.365 8.375-42.937 51.642-23.82 57.304S214 258 317.435 241.89c78.909-12.291 125.083-9.314 125.083 36.11 0 45.686-145.674 17-198.519 17-48.436 0-63.618 61.326-40.5 75.5s60.5 13.013 120 7.5c59.076-5.474 114.436-.61 96.936 43.39-7.178 18.048-65 46.5-127.5 57.5-50.186 8.832-110.5 5.5-132.5 10"/></svg>