<svg width="25" height="24" viewBox="0 0 25 24" fill="none" xmlns="http://www.w3.org/2000/svg">
<path fill-rule="evenodd" clip-rule="evenodd" d="M12.5 4.9395L21.5 13.9395V20.25C21.5 20.8467 21.2629 21.419 20.841 21.841C20.419 22.2629 19.8467 22.5 19.25 22.5H5.75C5.15326 22.5 4.58097 22.2629 4.15901 21.841C3.73705 21.419 3.5 20.8467 3.5 20.25V13.9395L12.5 4.9395ZM20 3.75V9L17 6V3.75C17 3.55109 17.079 3.36032 17.2197 3.21967C17.3603 3.07902 17.5511 3 17.75 3H19.25C19.4489 3 19.6397 3.07902 19.7803 3.21967C19.921 3.36032 20 3.55109 20 3.75Z" fill="#151515"/>
<path fill-rule="evenodd" clip-rule="evenodd" d="M11.4395 2.24997C11.7208 1.96876 12.1022 1.81079 12.5 1.81079C12.8977 1.81079 13.2792 1.96876 13.5605 2.24997L23.531 12.219C23.6718 12.3598 23.7509 12.5508 23.7509 12.75C23.7509 12.9491 23.6718 13.1401 23.531 13.281C23.3901 13.4218 23.1991 13.5009 23 13.5009C22.8008 13.5009 22.6098 13.4218 22.469 13.281L12.5 3.31047L2.53097 13.281C2.39014 13.4218 2.19913 13.5009 1.99997 13.5009C1.80081 13.5009 1.6098 13.4218 1.46897 13.281C1.32814 13.1401 1.24902 12.9491 1.24902 12.75C1.24902 12.5508 1.32814 12.3598 1.46897 12.219L11.4395 2.24997Z" fill="#151515"/>
</svg>
