<svg width="25" height="24" viewBox="0 0 25 24" fill="none" xmlns="http://www.w3.org/2000/svg">
<path d="M19.8136 1.39153C20.2072 1.44833 20.5 1.78915 20.5 2.19156V21.8082C20.5 22.2106 20.2072 22.5514 19.8136 22.6082L10.2136 23.9923C10.0995 24.0082 9.98328 23.9994 9.87288 23.9665C9.76247 23.9335 9.66046 23.8772 9.57377 23.8013C9.48709 23.7254 9.41777 23.6317 9.37053 23.5266C9.32329 23.4215 9.29923 23.3074 9.3 23.1922V21.6002H5.3416C5.11873 21.5995 4.90515 21.5108 4.74748 21.3533C4.58981 21.1957 4.50084 20.9822 4.5 20.7593V3.24119C4.5 2.77718 4.8784 2.39877 5.3416 2.39877H9.3V0.807514C9.3 0.316299 9.7312 -0.0613133 10.2136 0.00828889L19.8136 1.39153ZM11.7 12.7999C11.9122 12.7999 12.1157 12.7156 12.2657 12.5656C12.4157 12.4155 12.5 12.2121 12.5 11.9999C12.5 11.7877 12.4157 11.5842 12.2657 11.4342C12.1157 11.2841 11.9122 11.1998 11.7 11.1998C11.4878 11.1998 11.2843 11.2841 11.1343 11.4342C10.9843 11.5842 10.9 11.7877 10.9 11.9999C10.9 12.2121 10.9843 12.4155 11.1343 12.5656C11.2843 12.7156 11.4878 12.7999 11.7 12.7999ZM6.1 20.0001H9.3V3.99962H6.1V20.0001Z" fill="#151515"/>
</svg>
